/* XPM */
static char * logo_xpm[] = {
"20 20 2 1",
" 	c None",
".	c #dfdfdf",
" .....         .... ",
"  .....       ..... ",
"  .....      .....  ",
"   .....     ....   ",
"    .....     ..    ",
"    ......    ..    ",
"     .....          ",
"      .....         ",
"       .....        ",
"       .....        ",
"       ......       ",
"      ........      ",
"      .........     ",
"     .... .....     ",
"    .....  .....    ",
"   .....    .....   ",
"   ....      .....  ",
"  .....      .....  ",
" .....        ..... ",
".....          ....."};
